<mxfile host="app.diagrams.net" modified="2022-12-13T14:39:04.062Z" agent="5.0 (Macintosh; Intel Mac OS X 10_15_7) AppleWebKit/537.36 (KHTML, like Gecko) Chrome/108.0.0.0 Safari/537.36" etag="Ow9lSHsn0hNBKjKtfiLV" version="20.6.2" type="github">
  <diagram id="E6IjRvfCuhX2Yy5deakZ" name="第 1 页">
    <mxGraphModel dx="1412" dy="698" grid="1" gridSize="10" guides="1" tooltips="1" connect="1" arrows="1" fold="1" page="1" pageScale="1" pageWidth="827" pageHeight="1169" math="0" shadow="0">
      <root>
        <mxCell id="0" />
        <mxCell id="1" parent="0" />
        <mxCell id="Bo-WnP_CziDHzTEEVelE-19" value="" style="rounded=1;whiteSpace=wrap;html=1;fillColor=#D5E8D4;" parent="1" vertex="1">
          <mxGeometry x="190" y="30" width="350" height="260" as="geometry" />
        </mxCell>
        <mxCell id="Bo-WnP_CziDHzTEEVelE-17" value="" style="rounded=1;whiteSpace=wrap;html=1;fillColor=#B1DDF0;" parent="1" vertex="1">
          <mxGeometry x="70" y="30" width="100" height="260" as="geometry" />
        </mxCell>
        <mxCell id="Bo-WnP_CziDHzTEEVelE-1" value="platform" style="rounded=1;whiteSpace=wrap;html=1;fillColor=#D0CEE2;" parent="1" vertex="1">
          <mxGeometry x="80" y="50" width="80" height="30" as="geometry" />
        </mxCell>
        <mxCell id="Bo-WnP_CziDHzTEEVelE-2" value="Language API" style="rounded=1;whiteSpace=wrap;html=1;fillColor=#D0CEE2;" parent="1" vertex="1">
          <mxGeometry x="80" y="90" width="80" height="30" as="geometry" />
        </mxCell>
        <mxCell id="Bo-WnP_CziDHzTEEVelE-3" value="Windows" style="rounded=1;whiteSpace=wrap;html=1;fillColor=#CCE5FF;strokeColor=#36393D;" parent="1" vertex="1">
          <mxGeometry x="210" y="50" width="70" height="30" as="geometry" />
        </mxCell>
        <mxCell id="Bo-WnP_CziDHzTEEVelE-4" value="Linux" style="rounded=1;whiteSpace=wrap;html=1;fillColor=#CCE5FF;strokeColor=#36393D;" parent="1" vertex="1">
          <mxGeometry x="290" y="50" width="70" height="30" as="geometry" />
        </mxCell>
        <mxCell id="Bo-WnP_CziDHzTEEVelE-5" value="Android" style="rounded=1;whiteSpace=wrap;html=1;fillColor=#CCE5FF;strokeColor=#36393D;" parent="1" vertex="1">
          <mxGeometry x="370" y="50" width="70" height="30" as="geometry" />
        </mxCell>
        <mxCell id="Bo-WnP_CziDHzTEEVelE-6" value="Python" style="rounded=1;whiteSpace=wrap;html=1;fillColor=#CCE5FF;strokeColor=#36393D;" parent="1" vertex="1">
          <mxGeometry x="210" y="90" width="70" height="30" as="geometry" />
        </mxCell>
        <mxCell id="Bo-WnP_CziDHzTEEVelE-7" value="C++" style="rounded=1;whiteSpace=wrap;html=1;fillColor=#CCE5FF;strokeColor=#36393D;" parent="1" vertex="1">
          <mxGeometry x="290" y="90" width="70" height="30" as="geometry" />
        </mxCell>
        <mxCell id="Bo-WnP_CziDHzTEEVelE-8" value="Architecture" style="rounded=1;whiteSpace=wrap;html=1;fillColor=#D0CEE2;" parent="1" vertex="1">
          <mxGeometry x="80" y="130" width="80" height="30" as="geometry" />
        </mxCell>
        <mxCell id="Bo-WnP_CziDHzTEEVelE-9" value="x86" style="rounded=1;whiteSpace=wrap;html=1;fillColor=#CCE5FF;strokeColor=#36393D;" parent="1" vertex="1">
          <mxGeometry x="210" y="130" width="70" height="30" as="geometry" />
        </mxCell>
        <mxCell id="Bo-WnP_CziDHzTEEVelE-10" value="x64" style="rounded=1;whiteSpace=wrap;html=1;fillColor=#CCE5FF;strokeColor=#36393D;" parent="1" vertex="1">
          <mxGeometry x="290" y="130" width="70" height="30" as="geometry" />
        </mxCell>
        <mxCell id="Bo-WnP_CziDHzTEEVelE-11" value="Arm32" style="rounded=1;whiteSpace=wrap;html=1;fillColor=#CCE5FF;strokeColor=#36393D;" parent="1" vertex="1">
          <mxGeometry x="370" y="130" width="70" height="30" as="geometry" />
        </mxCell>
        <mxCell id="Bo-WnP_CziDHzTEEVelE-12" value="Arm64" style="rounded=1;whiteSpace=wrap;html=1;fillColor=#CCE5FF;strokeColor=#36393D;" parent="1" vertex="1">
          <mxGeometry x="450" y="130" width="70" height="30" as="geometry" />
        </mxCell>
        <mxCell id="Bo-WnP_CziDHzTEEVelE-13" value="Acceleration Methods" style="rounded=1;whiteSpace=wrap;html=1;fillColor=#D0CEE2;" parent="1" vertex="1">
          <mxGeometry x="80" y="170" width="80" height="60" as="geometry" />
        </mxCell>
        <mxCell id="Bo-WnP_CziDHzTEEVelE-14" value="CPU" style="rounded=1;whiteSpace=wrap;html=1;fillColor=#CCE5FF;strokeColor=#36393D;" parent="1" vertex="1">
          <mxGeometry x="210" y="170" width="70" height="60" as="geometry" />
        </mxCell>
        <mxCell id="Bo-WnP_CziDHzTEEVelE-15" value="Arm Computing Library" style="rounded=1;whiteSpace=wrap;html=1;fillColor=#CCE5FF;strokeColor=#36393D;" parent="1" vertex="1">
          <mxGeometry x="290" y="170" width="70" height="60" as="geometry" />
        </mxCell>
        <mxCell id="Bo-WnP_CziDHzTEEVelE-16" value="Arm NEON" style="rounded=1;whiteSpace=wrap;html=1;fillColor=#CCE5FF;strokeColor=#36393D;" parent="1" vertex="1">
          <mxGeometry x="370" y="170" width="70" height="60" as="geometry" />
        </mxCell>
        <mxCell id="Bo-WnP_CziDHzTEEVelE-20" value="iOS" style="rounded=1;whiteSpace=wrap;html=1;fillColor=#CCE5FF;strokeColor=#36393D;" parent="1" vertex="1">
          <mxGeometry x="450" y="50" width="70" height="30" as="geometry" />
        </mxCell>
        <mxCell id="Bo-WnP_CziDHzTEEVelE-21" value="CUDA" style="rounded=1;whiteSpace=wrap;html=1;fillColor=#CCE5FF;strokeColor=#36393D;" parent="1" vertex="1">
          <mxGeometry x="450" y="170" width="70" height="60" as="geometry" />
        </mxCell>
        <mxCell id="Bo-WnP_CziDHzTEEVelE-22" value="C" style="rounded=1;whiteSpace=wrap;html=1;fillColor=#CCE5FF;strokeColor=#36393D;" parent="1" vertex="1">
          <mxGeometry x="370" y="90" width="70" height="30" as="geometry" />
        </mxCell>
        <mxCell id="EuYdmSSkaWCSHqu7dFup-2" value="Runtime" style="rounded=1;whiteSpace=wrap;html=1;fillColor=#D0CEE2;" parent="1" vertex="1">
          <mxGeometry x="80" y="240" width="80" height="30" as="geometry" />
        </mxCell>
        <mxCell id="EuYdmSSkaWCSHqu7dFup-3" style="edgeStyle=orthogonalEdgeStyle;rounded=0;orthogonalLoop=1;jettySize=auto;html=1;exitX=0.5;exitY=1;exitDx=0;exitDy=0;" parent="1" source="Bo-WnP_CziDHzTEEVelE-17" target="Bo-WnP_CziDHzTEEVelE-17" edge="1">
          <mxGeometry relative="1" as="geometry" />
        </mxCell>
        <mxCell id="EuYdmSSkaWCSHqu7dFup-4" value="ONNX" style="rounded=1;whiteSpace=wrap;html=1;fillColor=#CCE5FF;strokeColor=#36393D;" parent="1" vertex="1">
          <mxGeometry x="210" y="240" width="70" height="30" as="geometry" />
        </mxCell>
        <mxCell id="EuYdmSSkaWCSHqu7dFup-5" value="NCNN" style="rounded=1;whiteSpace=wrap;html=1;fillColor=#CCE5FF;strokeColor=#36393D;" parent="1" vertex="1">
          <mxGeometry x="290" y="240" width="70" height="30" as="geometry" />
        </mxCell>
      </root>
    </mxGraphModel>
  </diagram>
</mxfile>
